<svg width="34" height="34" viewBox="0 0 34 34" fill="none" xmlns="http://www.w3.org/2000/svg">
<path d="M1.00002 16.9992C0.99624 19.5467 1.60346 22.0562 2.76846 24.3178L1.73272 29.8816L1.73254 29.8826C1.67211 30.209 1.69199 30.5452 1.79046 30.8622C1.88893 31.1792 2.06303 31.4675 2.29775 31.7022C2.53248 31.937 2.82077 32.1111 3.13778 32.2095C3.4548 32.308 3.79101 32.3279 4.11741 32.2675L4.11815 32.2673L9.68225 31.2328C11.8769 32.3625 14.3673 33 17 33C25.8365 33 33 25.8365 33 17C33 8.16352 25.8365 1 17 1C8.16379 1 1.00042 8.16312 1.00002 16.9992ZM1.00002 16.9992C1.00002 16.999 1.00002 16.9987 1.00002 16.9985L2.00002 17H1.00002C1.00002 16.9997 1.00002 16.9995 1.00002 16.9992ZM17.0625 22.5955L17.0568 22.6016L17.0513 22.6077L17.0373 22.6231L17.0288 22.6325L17.0205 22.642C17.0165 22.6467 17.0115 22.6505 17.006 22.6533C17.0004 22.656 16.9944 22.6577 16.9882 22.658C16.982 22.6584 16.9759 22.6576 16.97 22.6555C16.9642 22.6535 16.9588 22.6503 16.9542 22.6462C16.9496 22.642 16.9459 22.637 16.9432 22.6314C16.9406 22.6258 16.9391 22.6197 16.9389 22.6136C16.9386 22.6074 16.9396 22.6012 16.9417 22.5954C16.9439 22.5896 16.9472 22.5843 16.9514 22.5798L16.9571 22.5737L16.9627 22.5676L16.9767 22.5522L16.9852 22.5429L16.9934 22.5333C16.9975 22.5286 17.0024 22.5248 17.008 22.522C17.0135 22.5193 17.0196 22.5177 17.0257 22.5173C17.0319 22.5169 17.0381 22.5177 17.044 22.5198C17.0498 22.5218 17.0552 22.525 17.0598 22.5291C17.0644 22.5333 17.0681 22.5383 17.0707 22.5439C17.0734 22.5495 17.0749 22.5556 17.0751 22.5618C17.0754 22.568 17.0744 22.5741 17.0722 22.5799L18.0093 22.929L17.0722 22.5799C17.0701 22.5857 17.0668 22.591 17.0625 22.5955ZM17 11.3721C17.0123 11.3721 17.0242 11.377 17.0329 11.3857C17.0416 11.3944 17.0465 11.4063 17.0465 11.4186V17C17.0465 17.0123 17.0416 17.0242 17.0329 17.0329C17.0242 17.0416 17.0123 17.0465 17 17.0465C16.9877 17.0465 16.9758 17.0416 16.9671 17.0329C16.9584 17.0242 16.9535 17.0123 16.9535 17V11.4186C16.9535 11.4063 16.9584 11.3944 16.9671 11.3857C16.9758 11.377 16.9877 11.3721 17 11.3721Z" fill="#DA1D1D" stroke="white" stroke-width="2"/>
</svg>
