<svg width="68" height="68" viewBox="0 0 68 68" fill="none" xmlns="http://www.w3.org/2000/svg">
<path d="M6.44298 6.47474L6.44269 6.47504C2.44459 10.4731 2 15.9812 2 21.4728V46.395C2 52.0145 2.44371 57.4905 6.44239 61.4909L6.44269 61.4912C10.4397 65.4882 15.9791 65.9662 21.605 65.9662H46.4287C52.0225 65.9662 57.5608 65.4877 61.5573 61.4912C65.5564 57.4921 66 52.0142 66 46.395V21.5713C66 15.9619 65.561 10.443 61.5538 6.47291C57.5575 2.47825 52.0208 2 46.4287 2H21.5052C15.9739 2 10.4397 2.4797 6.44298 6.47474ZM34.0131 51.3169L34.0032 51.3169C33.842 51.3166 33.6875 51.2525 33.5735 51.1385C33.4598 51.0249 33.3956 50.8709 33.395 50.7101V36.5713V34.5713H31.395H17.2868C16.9397 34.5713 16.6817 34.2795 16.6817 34C16.6817 33.8616 16.743 33.6912 16.8782 33.5513C17.0073 33.4176 17.1529 33.3626 17.2854 33.3626H31.395H33.395V31.3626V17.2516C33.395 16.8567 33.6698 16.6142 34 16.6142C34.2075 16.6142 34.3442 16.6884 34.4327 16.7784C34.5234 16.8708 34.605 17.0235 34.605 17.2516V31.3626V33.3626H36.605H50.747C50.8806 33.3626 51.0266 33.418 51.1557 33.5516C51.2908 33.6914 51.352 33.8616 51.352 34C51.352 34.2795 51.094 34.5713 50.747 34.5713H36.605H34.605V36.5713L34.605 50.7146L34.6051 50.7266C34.6055 50.8045 34.5905 50.8817 34.5609 50.9537C34.5314 51.0257 34.4878 51.0911 34.4327 51.1462C34.3776 51.2012 34.3122 51.2448 34.2402 51.2743C34.1732 51.3018 34.0965 51.3174 34.0131 51.3169Z" fill="#CAE6FF" stroke="white" stroke-width="4"/>
</svg>
