<svg width="67" height="68" viewBox="0 0 67 68" fill="none" xmlns="http://www.w3.org/2000/svg">
<path d="M6.44298 6.47474L6.44269 6.47504C2.44459 10.4731 2 15.9812 2 21.4728V46.395C2 52.0145 2.44371 57.4906 6.44239 61.4909L6.44269 61.4912C10.4397 65.4882 15.9791 65.9662 21.605 65.9662H46.4287C52.0225 65.9662 57.5608 65.4877 61.5573 61.4912C65.5564 57.4921 66 52.0142 66 46.395V21.5713C66 15.9619 65.561 10.443 61.5538 6.47293C57.5576 2.47825 52.0208 2 46.4287 2H21.5052C15.9739 2 10.4397 2.4797 6.44298 6.47474Z" fill="#9FCFFC" fill-opacity="0.13" stroke="white" stroke-width="4"/>
<path d="M33.6656 56.2623C39.5561 56.2623 44.3312 52.2761 44.3312 47.3588V30.6648H23V47.3588C23 52.2761 27.7752 56.2623 33.6656 56.2623Z" fill="#E8F9FF" stroke="black" stroke-width="1.1"/>
<path d="M44.3312 20.7834C44.3312 15.9325 39.5561 12 33.6656 12C27.7752 12 23 15.9325 23 20.7834V30.6648H44.3312V20.7834Z" fill="#B4DBFF" stroke="black" stroke-width="1.1"/>
</svg>
