<svg width="67" height="68" viewBox="0 0 67 68" fill="none" xmlns="http://www.w3.org/2000/svg">
<path d="M6.44298 6.47474L6.44269 6.47504C2.44459 10.4731 2 15.9812 2 21.4728V46.395C2 52.0145 2.44371 57.4906 6.44239 61.4909L6.44269 61.4912C10.4397 65.4882 15.9791 65.9662 21.605 65.9662H46.4287C52.0225 65.9662 57.5608 65.4877 61.5573 61.4912C65.5564 57.4921 66 52.0142 66 46.395V21.5713C66 15.9619 65.561 10.443 61.5538 6.47293C57.5576 2.47825 52.0208 2 46.4287 2H21.5052C15.9739 2 10.4397 2.4797 6.44298 6.47474Z" fill="#9FCFFC" fill-opacity="0.7" stroke="white" stroke-width="4"/>
<path d="M33.6656 59.5975C39.5561 59.5975 44.3312 55.6113 44.3312 50.694V34H23V50.694C23 55.6113 27.7752 59.5975 33.6656 59.5975Z" fill="#E8F9FF" stroke="black" stroke-width="1.1"/>
<path d="M44.3312 17.7834C44.3312 12.9325 39.5561 9 33.6656 9C27.7752 9 23 12.9325 23 17.7834V27.6648H44.3312V17.7834Z" fill="#B4DBFF" stroke="black" stroke-width="1.1"/>
</svg>
