<svg width="43" height="44" viewBox="0 0 43 44" fill="none" xmlns="http://www.w3.org/2000/svg">
<path d="M3.79472 24.0312L23.6847 4.1384C24.7294 3.09371 25.9696 2.26502 27.3346 1.69964C28.6995 1.13426 30.1625 0.843262 31.6399 0.843262C33.1173 0.843262 34.5802 1.13426 35.9452 1.69964C37.3101 2.26502 38.5504 3.09371 39.595 4.1384C40.6397 5.18308 41.4684 6.4233 42.0338 7.78825C42.5992 9.1532 42.8902 10.6161 42.8902 12.0936C42.8902 13.571 42.5992 15.0339 42.0338 16.3989C41.4684 17.7638 40.6397 19.004 39.595 20.0487L19.7107 39.9359C18.6663 40.9811 17.4264 41.8104 16.0616 42.3765C14.6967 42.9425 13.2338 43.2342 11.7563 43.2348C10.2787 43.2355 8.81552 42.9451 7.4502 42.3803C6.08488 41.8155 4.84418 40.9872 3.79894 39.9429C2.7537 38.8986 1.92439 37.6586 1.35836 36.2938C0.792324 34.929 0.500654 33.4661 0.500001 31.9885C0.499348 30.511 0.789725 29.0478 1.35455 27.6825C1.91938 26.3171 2.75041 25.0764 3.79472 24.0312ZM29.4672 26.1996L37.6038 18.0631C38.3977 17.2818 39.029 16.3512 39.4614 15.3247C39.8938 14.2982 40.1187 13.1963 40.1231 12.0825C40.1275 10.9687 39.9113 9.86509 39.4871 8.83525C39.0628 7.80541 38.4388 6.86976 37.6512 6.08227C36.8635 5.29478 35.9277 4.67103 34.8977 4.24701C33.8678 3.82299 32.7641 3.60709 31.6503 3.61176C30.5365 3.61642 29.4346 3.84157 28.4083 4.2742C27.3819 4.70683 26.4514 5.3384 25.6703 6.13246L17.5338 14.269L29.4672 26.1996Z" fill="#9FCFFC"/>
</svg>
