<svg width="45" height="45" viewBox="0 0 45 45" fill="none" xmlns="http://www.w3.org/2000/svg">
<path d="M5.79472 25.0312L25.6847 5.1384C26.7294 4.09371 27.9696 3.26502 29.3346 2.69964C30.6995 2.13426 32.1625 1.84326 33.6399 1.84326C35.1173 1.84326 36.5802 2.13426 37.9452 2.69964C39.3101 3.26502 40.5504 4.09371 41.595 5.1384C42.6397 6.18308 43.4684 7.4233 44.0338 8.78825C44.5992 10.1532 44.8902 11.6161 44.8902 13.0936C44.8902 14.571 44.5992 16.0339 44.0338 17.3989C43.4684 18.7638 42.6397 20.004 41.595 21.0487L21.7107 40.9359C20.6663 41.9811 19.4264 42.8104 18.0616 43.3765C16.6967 43.9425 15.2338 44.2342 13.7563 44.2348C12.2787 44.2355 10.8155 43.9451 9.4502 43.3803C8.08488 42.8155 6.84418 41.9872 5.79894 40.9429C4.7537 39.8986 3.92439 38.6586 3.35836 37.2938C2.79232 35.929 2.50065 34.4661 2.5 32.9885C2.49935 31.511 2.78972 30.0478 3.35455 28.6825C3.91938 27.3171 4.75041 26.0764 5.79472 25.0312ZM31.4672 27.1996L39.6038 19.0631C40.3977 18.2818 41.029 17.3512 41.4614 16.3247C41.8938 15.2982 42.1187 14.1963 42.1231 13.0825C42.1275 11.9687 41.9113 10.8651 41.4871 9.83525C41.0628 8.80541 40.4388 7.86976 39.6512 7.08227C38.8635 6.29478 37.9277 5.67103 36.8977 5.24701C35.8678 4.82299 34.7641 4.60709 33.6503 4.61176C32.5365 4.61642 31.4346 4.84157 30.4083 5.2742C29.3819 5.70683 28.4514 6.3384 27.6703 7.13246L19.5338 15.269L31.4672 27.1996Z" fill="white"/>
</svg>
