<svg width="42" height="42" viewBox="0 0 42 42" fill="none" xmlns="http://www.w3.org/2000/svg">
<g filter="url(#filter0_d_43_242)">
<path fill-rule="evenodd" clip-rule="evenodd" d="M21 2C12.7158 2 6 8.71581 6 17C6 19.5898 6.65721 22.0302 7.81395 24.1581L6.71581 30.0647C6.68491 30.2316 6.69508 30.4035 6.74543 30.5656C6.79578 30.7277 6.88481 30.8751 7.00484 30.9952C7.12487 31.1152 7.2723 31.2042 7.43441 31.2546C7.59651 31.3049 7.76844 31.3151 7.93535 31.2842L13.8419 30.1847C16.0383 31.3796 18.4996 32.0038 21 32C29.2842 32 36 25.2842 36 17C36 8.71581 29.2842 2 21 2ZM27.3209 14.9488C27.4237 14.853 27.5062 14.7375 27.5634 14.6091C27.6206 14.4808 27.6514 14.3422 27.6538 14.2017C27.6563 14.0611 27.6305 13.9216 27.5778 13.7913C27.5252 13.661 27.4469 13.5426 27.3475 13.4432C27.2481 13.3438 27.1297 13.2655 26.9994 13.2129C26.8691 13.1602 26.7296 13.1344 26.589 13.1368C26.4485 13.1393 26.3099 13.1701 26.1816 13.2273C26.0532 13.2845 25.9377 13.367 25.8419 13.4698L19.6047 19.707L16.1581 16.2605C15.9598 16.0756 15.6974 15.975 15.4262 15.9798C15.1551 15.9845 14.8965 16.0944 14.7047 16.2861C14.513 16.4778 14.4031 16.7365 14.3984 17.0076C14.3936 17.2788 14.4942 17.5412 14.6791 17.7395L18.8651 21.9256C19.0613 22.1216 19.3273 22.2316 19.6047 22.2316C19.882 22.2316 20.148 22.1216 20.3442 21.9256L27.3209 14.9488Z" fill="#32C538"/>
<path d="M21.0008 33C29.8369 32.9996 37 25.8362 37 17C37 8.16353 29.8365 1 21 1C12.1635 1 5 8.16353 5 17C5 19.6327 5.63746 22.1231 6.76714 24.3178L5.73266 29.8819L5.73252 29.8826C5.67209 30.209 5.69197 30.5452 5.79044 30.8622C5.88891 31.1792 6.06301 31.4675 6.29774 31.7023C6.53246 31.937 6.82076 32.1111 7.13778 32.2096C7.45478 32.308 7.79099 32.3279 8.11739 32.2675L8.11836 32.2673L13.6822 31.2316C15.9438 32.3966 18.4533 33.0038 21.0008 33ZM21.0008 33C21.0005 33 21.0003 33 21 33V32L21.0015 33C21.0013 33 21.001 33 21.0008 33ZM26.6392 14.2172L26.6263 14.2293L26.6138 14.2417L19.6375 21.218C19.6375 21.2181 19.6374 21.2181 19.6374 21.2182C19.6287 21.2268 19.6169 21.2316 19.6047 21.2316C19.5924 21.2316 19.5806 21.2268 19.5719 21.2182C19.5719 21.2181 19.5718 21.2181 19.5718 21.218L15.4068 17.053C15.4011 17.045 15.398 17.0353 15.3982 17.0253C15.3984 17.0132 15.4033 17.0017 15.4118 16.9932C15.4203 16.9847 15.4318 16.9798 15.4439 16.9796C15.4539 16.9794 15.4636 16.9825 15.4717 16.9882L18.8975 20.4141L19.6047 21.1212L20.3118 20.4141L26.549 14.1769L26.5614 14.1644L26.5735 14.1515C26.5777 14.1469 26.5829 14.1433 26.5886 14.1407C26.5943 14.1382 26.6004 14.1368 26.6067 14.1367C26.6129 14.1366 26.6191 14.1377 26.6249 14.1401C26.6307 14.1424 26.636 14.1459 26.6404 14.1503C26.6448 14.1547 26.6483 14.16 26.6506 14.1658L27.5778 13.7913L26.6506 14.1658C26.653 14.1716 26.6541 14.1778 26.654 14.184C26.6539 14.1903 26.6525 14.1964 26.65 14.2021C26.6474 14.2078 26.6438 14.213 26.6392 14.2172Z" stroke="white" stroke-width="2"/>
</g>
<defs>
<filter id="filter0_d_43_242" x="0" y="0" width="42" height="42" filterUnits="userSpaceOnUse" color-interpolation-filters="sRGB">
<feFlood flood-opacity="0" result="BackgroundImageFix"/>
<feColorMatrix in="SourceAlpha" type="matrix" values="0 0 0 0 0 0 0 0 0 0 0 0 0 0 0 0 0 0 127 0" result="hardAlpha"/>
<feOffset dy="4"/>
<feGaussianBlur stdDeviation="2"/>
<feComposite in2="hardAlpha" operator="out"/>
<feColorMatrix type="matrix" values="0 0 0 0 0 0 0 0 0 0 0 0 0 0 0 0 0 0 0.25 0"/>
<feBlend mode="normal" in2="BackgroundImageFix" result="effect1_dropShadow_43_242"/>
<feBlend mode="normal" in="SourceGraphic" in2="effect1_dropShadow_43_242" result="shape"/>
</filter>
</defs>
</svg>
