<svg width="44" height="37" viewBox="0 0 44 37" fill="none" xmlns="http://www.w3.org/2000/svg">
<path d="M28.5275 11.7341H34.9094M28.5275 18.4008H34.9094M28.5275 25.0674H34.9094M22.1456 27.2897C21.4947 25.9274 20.1609 25.0674 18.7037 25.0674H12.8238C11.3666 25.0674 10.0328 25.9274 9.38188 27.2897M5.12729 2.84521H39.164C39.7282 2.84521 40.2693 3.07934 40.6682 3.49609C41.0672 3.91284 41.2913 4.47807 41.2913 5.06744V31.7341C41.2913 32.3235 41.0672 32.8887 40.6682 33.3055C40.2693 33.7222 39.7282 33.9563 39.164 33.9563H5.12729C4.5631 33.9563 4.02201 33.7222 3.62307 33.3055C3.22412 32.8887 3 32.3235 3 31.7341V5.06744C3 4.47807 3.22412 3.91284 3.62307 3.49609C4.02201 3.07934 4.5631 2.84521 5.12729 2.84521ZM20.0183 13.9563C20.0183 15.1351 19.5701 16.2655 18.7722 17.099C17.9743 17.9325 16.8921 18.4008 15.7638 18.4008C14.6354 18.4008 13.5532 17.9325 12.7553 17.099C11.9574 16.2655 11.5092 15.1351 11.5092 13.9563C11.5092 12.7776 11.9574 11.6471 12.7553 10.8136C13.5532 9.98013 14.6354 9.51188 15.7638 9.51188C16.8921 9.51188 17.9743 9.98013 18.7722 10.8136C19.5701 11.6471 20.0183 12.7776 20.0183 13.9563Z" stroke="#444444" stroke-width="4.44444" stroke-linecap="round" stroke-linejoin="round"/>
</svg>
