<svg width="44" height="37" viewBox="0 0 44 37" fill="none" xmlns="http://www.w3.org/2000/svg">
<path d="M42.5565 2.80005L31.3698 6.28664V11.7521H28.6774V6.7578L16.5618 0.551932V5.02124H13.8695V0L0.851967 5.3847C0.722909 5.43726 0.612066 5.52646 0.533121 5.64129C0.454176 5.75611 0.410585 5.89155 0.407729 6.03087V33.8967C0.406972 34.0153 0.435794 34.1322 0.491589 34.2369C0.547384 34.3416 0.62839 34.4307 0.727281 34.4961C0.826173 34.5616 0.939828 34.6014 1.05797 34.6119C1.17611 34.6224 1.295 34.6033 1.4039 34.5563L13.8695 29.4139V23.8677H16.5618V29.9659L28.6774 36.1717V30.5986H31.3698V35.7006L42.9873 32.0659C43.1328 32.0198 43.2598 31.9283 43.3494 31.8047C43.4391 31.6811 43.4867 31.532 43.4854 31.3794V3.4866C43.4864 3.37392 43.4607 3.2626 43.4104 3.16177C43.3601 3.06093 43.2866 2.97344 43.196 2.90646C43.1054 2.83949 43.0002 2.79492 42.889 2.77643C42.7779 2.75793 42.6639 2.76602 42.5565 2.80005ZM16.5618 21.1753H13.8695V15.7906H16.5618V21.1753ZM16.5618 13.0983H13.8695V7.71359H16.5618V13.0983ZM31.3698 27.9062H28.6774V22.5215H31.3698V27.9062ZM31.3698 19.8292H28.6774V14.4445H31.3698V19.8292Z" fill="#444444"/>
</svg>
