<svg width="43" height="35" viewBox="0 0 43 35" fill="none" xmlns="http://www.w3.org/2000/svg">
<path d="M28.0275 11.1903H34.4094M28.0275 17.5722H34.4094M28.0275 23.9541H34.4094M21.6456 26.0814C20.9947 24.7773 19.6609 23.9541 18.2037 23.9541H12.3238C10.8666 23.9541 9.53283 24.7773 8.88188 26.0814M4.62729 2.68115H38.664C39.2282 2.68115 39.7693 2.90528 40.1682 3.30422C40.5671 3.70317 40.7913 4.24425 40.7913 4.80844V30.336C40.7913 30.9001 40.5671 31.4412 40.1682 31.8402C39.7693 32.2391 39.2282 32.4632 38.664 32.4632H4.62729C4.0631 32.4632 3.52201 32.2391 3.12307 31.8402C2.72412 31.4412 2.5 30.9001 2.5 30.336V4.80844C2.5 4.24425 2.72412 3.70317 3.12307 3.30422C3.52201 2.90528 4.0631 2.68115 4.62729 2.68115ZM19.5183 13.3176C19.5183 14.446 19.0701 15.5282 18.2722 16.3261C17.4743 17.1239 16.3921 17.5722 15.2638 17.5722C14.1354 17.5722 13.0532 17.1239 12.2553 16.3261C11.4574 15.5282 11.0092 14.446 11.0092 13.3176C11.0092 12.1892 11.4574 11.1071 12.2553 10.3092C13.0532 9.51128 14.1354 9.06303 15.2638 9.06303C16.3921 9.06303 17.4743 9.51128 18.2722 10.3092C19.0701 11.1071 19.5183 12.1892 19.5183 13.3176Z" stroke="url(#paint0_linear_43_893)" stroke-width="4.25458" stroke-linecap="round" stroke-linejoin="round"/>
<defs>
<linearGradient id="paint0_linear_43_893" x1="2.02136" y1="2.73432" x2="17.8165" y2="29.0596" gradientUnits="userSpaceOnUse">
<stop stop-color="#A8EAFF"/>
<stop offset="1" stop-color="#9FCFFC"/>
</linearGradient>
</defs>
</svg>
