<svg width="44" height="38" viewBox="0 0 44 38" fill="none" xmlns="http://www.w3.org/2000/svg">
<path d="M43.0565 2.925L31.8698 6.56718V12.2766H29.1774V7.05937L17.0618 0.576562V5.24531H14.3695V0L1.35197 5.625C1.22291 5.6799 1.11207 5.77307 1.03312 5.89303C0.954176 6.01298 0.910585 6.15446 0.907729 6.29999V35.4093C0.906972 35.5332 0.935794 35.6554 0.991589 35.7647C1.04738 35.874 1.12839 35.9671 1.22728 36.0355C1.32617 36.1039 1.43983 36.1455 1.55797 36.1565C1.67611 36.1675 1.795 36.1475 1.9039 36.0984L14.3695 30.7265V24.9328H17.0618V31.3031L29.1774 37.7859V31.964H31.8698V37.2937L43.4873 33.4968C43.6328 33.4487 43.7597 33.3531 43.8494 33.224C43.939 33.0949 43.9867 32.9391 43.9853 32.7797V3.64218C43.9863 3.52448 43.9607 3.4082 43.9104 3.30286C43.8601 3.19752 43.7866 3.10613 43.696 3.03616C43.6054 2.9662 43.5002 2.91965 43.389 2.90032C43.2779 2.881 43.1639 2.88946 43.0565 2.925ZM17.0618 22.1203H14.3695V16.4953H17.0618V22.1203ZM17.0618 13.6828H14.3695V8.05781H17.0618V13.6828ZM31.8698 29.1515H29.1774V23.5265H31.8698V29.1515ZM31.8698 20.714H29.1774V15.089H31.8698V20.714Z" fill="url(#paint0_linear_43_250)"/>
<defs>
<linearGradient id="paint0_linear_43_250" x1="0.907715" y1="18.893" x2="23.2186" y2="36.8402" gradientUnits="userSpaceOnUse">
<stop stop-color="#A8EAFF"/>
<stop offset="1" stop-color="#9FCFFC"/>
</linearGradient>
</defs>
</svg>
