<svg width="37" height="38" viewBox="0 0 37 38" fill="none" xmlns="http://www.w3.org/2000/svg">
<path d="M25.7397 28.7293C22.6111 31.1577 18.6748 32.3026 14.7318 31.9309C10.7889 31.5593 7.1358 29.699 4.51612 26.7288C1.89644 23.7586 0.507108 19.9017 0.630924 15.9432C0.754741 11.9848 2.3824 8.22226 5.18259 5.42158C7.98326 2.6214 11.7458 0.99374 15.7042 0.869923C19.6627 0.746106 23.5196 2.13544 26.4898 4.75512C29.46 7.3748 31.3203 11.0279 31.6919 14.9708C32.0636 18.9138 30.9187 22.8501 28.4903 25.9787L36.3789 33.8673C36.6351 34.1052 36.8224 34.4077 36.921 34.7431C37.0197 35.0785 37.026 35.4343 36.9394 35.773C36.8528 36.1117 36.6765 36.4208 36.429 36.6677C36.1814 36.9146 35.8719 37.0901 35.533 37.1758C35.1946 37.2623 34.8393 37.2561 34.5042 37.1579C34.1691 37.0598 33.8665 36.8732 33.6283 36.6179L25.7397 28.7293ZM27.8675 16.4293C27.8906 14.8817 27.6057 13.345 27.0294 11.9085C26.4531 10.472 25.597 9.1644 24.5107 8.06182C23.4245 6.95925 22.1298 6.08368 20.7021 5.48604C19.2743 4.88841 17.742 4.58064 16.1942 4.58064C14.6464 4.58064 13.1141 4.88841 11.6863 5.48604C10.2586 6.08368 8.96395 6.95925 7.87769 8.06182C6.79143 9.1644 5.93526 10.472 5.35898 11.9085C4.78269 13.345 4.4978 14.8817 4.52088 16.4293C4.56659 19.4951 5.81656 22.4199 8.00076 24.5718C10.185 26.7237 13.128 27.9299 16.1942 27.9299C19.2604 27.9299 22.2034 26.7237 24.3876 24.5718C26.5718 22.4199 27.8218 19.4951 27.8675 16.4293Z" fill="url(#paint0_linear_43_1436)"/>
<defs>
<linearGradient id="paint0_linear_43_1436" x1="18.8117" y1="0.862305" x2="18.8117" y2="37.2364" gradientUnits="userSpaceOnUse">
<stop stop-color="#A8EAFF"/>
<stop offset="1" stop-color="#9FCFFC"/>
</linearGradient>
</defs>
</svg>
