<svg width="37" height="39" viewBox="0 0 37 39" fill="none" xmlns="http://www.w3.org/2000/svg">
<path d="M25.2398 30.0112C22.1113 32.5479 18.1749 33.7439 14.2319 33.3557C10.289 32.9674 6.63591 31.0242 4.01623 27.9214C1.39655 24.8187 0.00721449 20.7897 0.131031 16.6546C0.254848 12.5194 1.88251 8.58903 4.68269 5.66337C7.48337 2.73823 11.2459 1.03793 15.2044 0.908593C19.1628 0.779251 23.0197 2.23058 25.9899 4.96716C28.9601 7.70375 30.8204 11.5199 31.192 15.6388C31.5637 19.7576 30.4188 23.8697 27.9904 27.1378L35.879 35.3785C36.1352 35.627 36.3225 35.943 36.4212 36.2934C36.5198 36.6438 36.5261 37.0154 36.4395 37.3692C36.3529 37.7231 36.1766 38.0459 35.9291 38.3038C35.6815 38.5617 35.372 38.7451 35.0331 38.8346C34.6948 38.9249 34.3394 38.9185 34.0043 38.8159C33.6692 38.7134 33.3666 38.5185 33.1284 38.2518L25.2398 30.0112ZM27.3676 17.1623C27.3907 15.5456 27.1058 13.9403 26.5295 12.4397C25.9533 10.9391 25.0971 9.5732 24.0108 8.42143C22.9246 7.26965 21.6299 6.35501 20.2022 5.7307C18.7744 5.1064 17.2421 4.7849 15.6943 4.7849C14.1465 4.7849 12.6142 5.1064 11.1865 5.7307C9.75871 6.35501 8.46406 7.26965 7.3778 8.42143C6.29154 9.5732 5.43537 10.9391 4.85908 12.4397C4.2828 13.9403 3.99791 15.5456 4.02099 17.1623C4.0667 20.3649 5.31667 23.4202 7.50087 25.6681C9.68508 27.916 12.6282 29.1761 15.6943 29.1761C18.7605 29.1761 21.7036 27.916 23.8878 25.6681C26.072 23.4202 27.3219 20.3649 27.3676 17.1623Z" fill="#444444"/>
</svg>
